# xmcd
#
# Track frame offsets: 
#        182
#        13457
#        25050
#        35770
#        46497
#        57072
#        65717
#        74955
#        84512
#        95420
#        108992
#        119817
#        132482
#        143040
#        155607
#        165775
#        177940
#        190827
#        207397
#        230130
#        247365
#        267307
#
# Disc length: 3749 seconds
#
# Revision: 0
# Processed by: cddbd v1.4PL0 Copyright (c) Steve Scherf et al.
# Submitted via: ExactAudioCopy v0.95a3
#
DISCID=560ea316
DTITLE=The Shadows - Golden Hits CD1
DYEAR=1900
DGENRE=Easy Listening
TTITLE0=Apache
TTITLE1=Foot Tapper
TTITLE2=FBI
TTITLE3=The Frightened City
TTITLE4=Geronimo
TTITLE5=Kon Tiki
TTITLE6=Man of Mistery
TTITLE7=Wonderful Land
TTITLE8=The Savage
TTITLE9=Guitar Tango
TTITLE10=Dance On!
TTITLE11=Atlantis
TTITLE12=Shindig
TTITLE13=The rise and fall of Flingel Bunt
TTITLE14=Don't make my baby blue
TTITLE15=Genie with the light brown lamp
TTITLE16=Let me be the one
TTITLE17=Riders in the sky
TTITLE18=A white shade of pale
TTITLE19=You don't have to say you love me
TTITLE20=Good Vibrations
TTITLE21=Paperback Writer
EXTD=
EXTT0=
EXTT1=
EXTT2=
EXTT3=
EXTT4=
EXTT5=
EXTT6=
EXTT7=
EXTT8=
EXTT9=
EXTT10=
EXTT11=
EXTT12=
EXTT13=
EXTT14=
EXTT15=
EXTT16=
EXTT17=
EXTT18=
EXTT19=
EXTT20=
EXTT21=
PLAYORDER=
